{
	"accessors" : 
	[
		{
			"bufferView" : 2,
			"byteOffset" : 0,
			"componentType" : 5126,
			"count" : 17444,
			"max" : 
			[
				1,
				1,
				1,
				1
			],
			"min" : 
			[
				0,
				0.3111805319786072,
				0.03994716703891754,
				1
			],
			"name" : "accessor_color_m0-PolyPaper10_-292292",
			"type" : "VEC4"
		},
		{
			"bufferView" : 2,
			"byteOffset" : 279104,
			"componentType" : 5126,
			"count" : 6762,
			"max" : 
			[
				1,
				1,
				1,
				1
			],
			"min" : 
			[
				0,
				0.3111805319786072,
				0.03994716703891754,
				1
			],
			"name" : "accessor_color_m1-PolyPaper10_-292298",
			"type" : "VEC4"
		},
		{
			"bufferView" : 0,
			"byteOffset" : 0,
			"componentType" : 5123,
			"count" : 22086,
			"max" : 
			[
				17443
			],
			"min" : 
			[
				0
			],
			"name" : "accessor_indices_0_m0-PolyPaper10_-292292",
			"type" : "SCALAR"
		},
		{
			"bufferView" : 0,
			"byteOffset" : 44172,
			"componentType" : 5123,
			"count" : 8730,
			"max" : 
			[
				6761
			],
			"min" : 
			[
				0
			],
			"name" : "accessor_indices_0_m1-PolyPaper10_-292298",
			"type" : "SCALAR"
		},
		{
			"bufferView" : 1,
			"byteOffset" : 209328,
			"componentType" : 5126,
			"count" : 17444,
			"max" : 
			[
				0.9999942000000001,
				0.9990975,
				0.9999195
			],
			"min" : 
			[
				-0.9998046,
				-0.9994652000000001,
				-0.9998082
			],
			"name" : "accessor_normal_m0-PolyPaper10_-292292",
			"type" : "VEC3"
		},
		{
			"bufferView" : 1,
			"byteOffset" : 499800,
			"componentType" : 5126,
			"count" : 6762,
			"max" : 
			[
				0.9994925,
				1,
				0.9998229
			],
			"min" : 
			[
				-0.9994925,
				-1,
				-0.9997817
			],
			"name" : "accessor_normal_m1-PolyPaper10_-292298",
			"type" : "VEC3"
		},
		{
			"bufferView" : 1,
			"byteOffset" : 0,
			"componentType" : 5126,
			"count" : 17444,
			"max" : 
			[
				0.9617178,
				1.401277,
				0.1120664
			],
			"min" : 
			[
				0.725213,
				1.124849,
				-0.1498471
			],
			"name" : "accessor_position_m0-PolyPaper10_-292292",
			"type" : "VEC3"
		},
		{
			"bufferView" : 1,
			"byteOffset" : 418656,
			"componentType" : 5126,
			"count" : 6762,
			"max" : 
			[
				0.9538605,
				1.396623,
				0.05258472
			],
			"min" : 
			[
				0.752355,
				1.018664,
				-0.1401618
			],
			"name" : "accessor_position_m1-PolyPaper10_-292298",
			"type" : "VEC3"
		}
	],
	"asset" : 
	{
		"copyright" : "Unknown",
		"generator" : "glTF 1-to-2 Upgrader for Google Blocks",
		"version" : "2.0"
	},
	"bufferViews" : 
	[
		{
			"buffer" : 0,
			"byteLength" : 61632,
			"byteOffset" : 0,
			"name" : "ushortBufferView",
			"target" : 34963
		},
		{
			"buffer" : 0,
			"byteLength" : 580944,
			"byteOffset" : 61632,
			"byteStride" : 12,
			"name" : "vec3BufferView",
			"target" : 34962
		},
		{
			"buffer" : 0,
			"byteLength" : 387296,
			"byteOffset" : 642576,
			"byteStride" : 16,
			"name" : "vec4BufferView",
			"target" : 34962
		}
	],
	"buffers" : 
	[
		{
			"byteLength" : 1029872,
			"name" : "model",
			"uri" : "model.bin"
		}
	],
	"materials" : 
	[
		{
			"alphaMode" : "OPAQUE",
			"doubleSided" : false,
			"name" : "BlocksPaper",
			"pbrMetallicRoughness" : 
			{
				"baseColorFactor" : 
				[
					1,
					1,
					1,
					1
				],
				"metallicFactor" : 0,
				"roughnessFactor" : 0.6
			}
		},
		{
			"alphaMode" : "BLEND",
			"doubleSided" : false,
			"name" : "BlocksGlass",
			"pbrMetallicRoughness" : 
			{
				"baseColorFactor" : 
				[
					0.2,
					0.2,
					1,
					0.3
				],
				"metallicFactor" : 1,
				"roughnessFactor" : 0.4
			}
		},
		{
			"alphaMode" : "OPAQUE",
			"doubleSided" : true,
			"name" : "BlocksGem",
			"pbrMetallicRoughness" : 
			{
				"baseColorFactor" : 
				[
					1,
					0.4,
					1,
					1
				],
				"metallicFactor" : 0,
				"roughnessFactor" : 0.1
			}
		}
	],
	"meshes" : 
	[
		{
			"name" : "mesh_m0-PolyPaper10_-292292",
			"primitives" : 
			[
				{
					"attributes" : 
					{
						"COLOR_0" : 0,
						"NORMAL" : 4,
						"POSITION" : 6
					},
					"indices" : 2,
					"material" : 0,
					"mode" : 4
				}
			]
		},
		{
			"name" : "mesh_m1-PolyPaper10_-292298",
			"primitives" : 
			[
				{
					"attributes" : 
					{
						"COLOR_0" : 1,
						"NORMAL" : 5,
						"POSITION" : 7
					},
					"indices" : 3,
					"material" : 0,
					"mode" : 4
				}
			]
		}
	],
	"nodes" : 
	[
		{
			"matrix" : 
			[
				1,
				0,
				0,
				0,
				0,
				1,
				0,
				0,
				0,
				0,
				1,
				0,
				0,
				0,
				0,
				1
			],
			"mesh" : 1,
			"name" : "node_MeshObject-1668924416-PolyPaper10"
		},
		{
			"matrix" : 
			[
				1,
				0,
				0,
				0,
				0,
				1,
				0,
				0,
				0,
				0,
				1,
				0,
				0,
				0,
				0,
				1
			],
			"mesh" : 0,
			"name" : "node_MeshObject434838528-PolyPaper10"
		}
	],
	"scene" : 0,
	"scenes" : 
	[
		{
			"extras" : {},
			"name" : "defaultScene",
			"nodes" : 
			[
				1,
				0
			]
		}
	]
}